M48
; DRILL file {KiCad 7.0.5-0} date 2023 July 26, Wednesday 01:41:53
; FORMAT={-:-/ absolute / inch / decimal}
; #@! TF.CreationDate,2023-07-26T01:41:53+02:00
; #@! TF.GenerationSoftware,Kicad,Pcbnew,7.0.5-0
; #@! TF.FileFunction,Plated,1,2,PTH
FMAT,2
INCH
; #@! TA.AperFunction,Plated,PTH,ViaDrill
T1C0.0157
; #@! TA.AperFunction,Plated,PTH,ComponentDrill
T2C0.0394
; #@! TA.AperFunction,Plated,PTH,ComponentDrill
T3C0.1929
%
G90
G05
T1
X6.2795Y-3.2874
X7.1654Y-2.7362
X7.2047Y-2.7756
T2
X6.1959Y-2.889
X6.1959Y-2.989
X6.1959Y-3.089
X6.1959Y-3.189
X6.1959Y-3.289
X6.1959Y-3.389
X6.1959Y-3.489
X6.7963Y-2.889
X6.7963Y-2.989
X6.7963Y-3.089
X6.7963Y-3.189
X6.7963Y-3.289
X6.7963Y-3.389
X6.7963Y-3.489
X7.0577Y-2.4803
X7.1577Y-2.4803
X7.377Y-2.889
X7.377Y-2.989
X7.377Y-3.089
X7.377Y-3.189
X7.377Y-3.289
X7.377Y-3.389
X7.377Y-3.489
X7.9774Y-2.889
X7.9774Y-2.989
X7.9774Y-3.089
X7.9774Y-3.189
X7.9774Y-3.289
X7.9774Y-3.389
X7.9774Y-3.489
T3
X5.6693Y-2.5197
X5.6693Y-2.8346
X5.6693Y-3.1496
X5.6693Y-3.4646
X8.5039Y-2.5197
X8.5039Y-2.8346
X8.5039Y-3.1496
X8.5039Y-3.4646
T0
M30
