%TF.GenerationSoftware,KiCad,Pcbnew,7.0.5-0*%
%TF.CreationDate,2023-07-26T01:41:50+02:00*%
%TF.ProjectId,esp32c3-wifi-dev,65737033-3263-4332-9d77-6966692d6465,rev?*%
%TF.SameCoordinates,Original*%
%TF.FileFunction,Soldermask,Bot*%
%TF.FilePolarity,Negative*%
%FSLAX46Y46*%
G04 Gerber Fmt 4.6, Leading zero omitted, Abs format (unit mm)*
G04 Created by KiCad (PCBNEW 7.0.5-0) date 2023-07-26 01:41:50*
%MOMM*%
%LPD*%
G01*
G04 APERTURE LIST*
G04 Aperture macros list*
%AMFreePoly0*
4,1,19,0.500000,-0.750000,0.000000,-0.750000,0.000000,-0.744911,-0.071157,-0.744911,-0.207708,-0.704816,-0.327430,-0.627875,-0.420627,-0.520320,-0.479746,-0.390866,-0.500000,-0.250000,-0.500000,0.250000,-0.479746,0.390866,-0.420627,0.520320,-0.327430,0.627875,-0.207708,0.704816,-0.071157,0.744911,0.000000,0.744911,0.000000,0.750000,0.500000,0.750000,0.500000,-0.750000,0.500000,-0.750000,
$1*%
%AMFreePoly1*
4,1,19,0.000000,0.744911,0.071157,0.744911,0.207708,0.704816,0.327430,0.627875,0.420627,0.520320,0.479746,0.390866,0.500000,0.250000,0.500000,-0.250000,0.479746,-0.390866,0.420627,-0.520320,0.327430,-0.627875,0.207708,-0.704816,0.071157,-0.744911,0.000000,-0.744911,0.000000,-0.750000,-0.500000,-0.750000,-0.500000,0.750000,0.000000,0.750000,0.000000,0.744911,0.000000,0.744911,
$1*%
G04 Aperture macros list end*
%ADD10R,3.500000X1.700000*%
%ADD11O,3.600000X1.700000*%
%ADD12O,3.700000X1.700000*%
%ADD13C,6.000000*%
%ADD14R,1.700000X1.700000*%
%ADD15O,1.700000X1.700000*%
%ADD16FreePoly0,0.000000*%
%ADD17FreePoly1,0.000000*%
G04 APERTURE END LIST*
D10*
%TO.C,U2*%
X203625000Y-88620000D03*
D11*
X203625000Y-86080000D03*
X203625000Y-83540000D03*
X203625000Y-81000000D03*
X203625000Y-78460000D03*
X203625000Y-75920000D03*
X203625000Y-73380000D03*
X186375000Y-73380000D03*
X186375000Y-75920000D03*
X186375000Y-78460000D03*
D12*
X186375000Y-81000000D03*
X186375000Y-83540000D03*
X186375000Y-86080000D03*
X186375000Y-88620000D03*
%TD*%
D13*
%TO.C,J2*%
X144000000Y-64000000D03*
X144000000Y-72000000D03*
X144000000Y-80000000D03*
X144000000Y-88000000D03*
%TD*%
%TO.C,J3*%
X216000000Y-64000000D03*
X216000000Y-72000000D03*
X216000000Y-80000000D03*
X216000000Y-88000000D03*
%TD*%
D10*
%TO.C,U1*%
X173625000Y-88620000D03*
D11*
X173625000Y-86080000D03*
X173625000Y-83540000D03*
X173625000Y-81000000D03*
X173625000Y-78460000D03*
X173625000Y-75920000D03*
X173625000Y-73380000D03*
X156375000Y-73380000D03*
X156375000Y-75920000D03*
X156375000Y-78460000D03*
D12*
X156375000Y-81000000D03*
X156375000Y-83540000D03*
X156375000Y-86080000D03*
X156375000Y-88620000D03*
%TD*%
D14*
%TO.C,J1*%
X181805000Y-63000000D03*
D15*
X179265000Y-63000000D03*
%TD*%
D16*
%TO.C,JP3*%
X161185000Y-81000000D03*
D17*
X162485000Y-81000000D03*
%TD*%
D16*
%TO.C,JP2*%
X194825000Y-73380000D03*
D17*
X196125000Y-73380000D03*
%TD*%
D16*
%TO.C,JP4*%
X161185000Y-78460000D03*
D17*
X162485000Y-78460000D03*
%TD*%
D16*
%TO.C,JP6*%
X161185000Y-83540000D03*
D17*
X162485000Y-83540000D03*
%TD*%
D16*
%TO.C,JP1*%
X194825000Y-75920000D03*
D17*
X196125000Y-75920000D03*
%TD*%
D16*
%TO.C,JP7*%
X194825000Y-83540000D03*
D17*
X196125000Y-83540000D03*
%TD*%
D16*
%TO.C,JP5*%
X161185000Y-75920000D03*
D17*
X162485000Y-75920000D03*
%TD*%
D16*
%TO.C,JP8*%
X194825000Y-81000000D03*
D17*
X196125000Y-81000000D03*
%TD*%
M02*
