%TF.GenerationSoftware,KiCad,Pcbnew,7.0.5-0*%
%TF.CreationDate,2023-07-26T01:41:50+02:00*%
%TF.ProjectId,esp32c3-wifi-dev,65737033-3263-4332-9d77-6966692d6465,rev?*%
%TF.SameCoordinates,Original*%
%TF.FileFunction,Copper,L2,Bot*%
%TF.FilePolarity,Positive*%
%FSLAX46Y46*%
G04 Gerber Fmt 4.6, Leading zero omitted, Abs format (unit mm)*
G04 Created by KiCad (PCBNEW 7.0.5-0) date 2023-07-26 01:41:50*
%MOMM*%
%LPD*%
G01*
G04 APERTURE LIST*
G04 Aperture macros list*
%AMFreePoly0*
4,1,19,0.500000,-0.750000,0.000000,-0.750000,0.000000,-0.744911,-0.071157,-0.744911,-0.207708,-0.704816,-0.327430,-0.627875,-0.420627,-0.520320,-0.479746,-0.390866,-0.500000,-0.250000,-0.500000,0.250000,-0.479746,0.390866,-0.420627,0.520320,-0.327430,0.627875,-0.207708,0.704816,-0.071157,0.744911,0.000000,0.744911,0.000000,0.750000,0.500000,0.750000,0.500000,-0.750000,0.500000,-0.750000,
$1*%
%AMFreePoly1*
4,1,19,0.000000,0.744911,0.071157,0.744911,0.207708,0.704816,0.327430,0.627875,0.420627,0.520320,0.479746,0.390866,0.500000,0.250000,0.500000,-0.250000,0.479746,-0.390866,0.420627,-0.520320,0.327430,-0.627875,0.207708,-0.704816,0.071157,-0.744911,0.000000,-0.744911,0.000000,-0.750000,-0.500000,-0.750000,-0.500000,0.750000,0.000000,0.750000,0.000000,0.744911,0.000000,0.744911,
$1*%
G04 Aperture macros list end*
%TA.AperFunction,ComponentPad*%
%ADD10R,3.500000X1.700000*%
%TD*%
%TA.AperFunction,ComponentPad*%
%ADD11O,3.600000X1.700000*%
%TD*%
%TA.AperFunction,ComponentPad*%
%ADD12O,3.700000X1.700000*%
%TD*%
%TA.AperFunction,ComponentPad*%
%ADD13C,6.000000*%
%TD*%
%TA.AperFunction,ComponentPad*%
%ADD14R,1.700000X1.700000*%
%TD*%
%TA.AperFunction,ComponentPad*%
%ADD15O,1.700000X1.700000*%
%TD*%
%TA.AperFunction,SMDPad,CuDef*%
%ADD16FreePoly0,0.000000*%
%TD*%
%TA.AperFunction,SMDPad,CuDef*%
%ADD17FreePoly1,0.000000*%
%TD*%
%TA.AperFunction,ViaPad*%
%ADD18C,0.800000*%
%TD*%
%TA.AperFunction,Conductor*%
%ADD19C,0.250000*%
%TD*%
G04 APERTURE END LIST*
%TA.AperFunction,EtchedComponent*%
%TO.C,JP3*%
G36*
X162085000Y-81300000D02*
G01*
X161585000Y-81300000D01*
X161585000Y-80700000D01*
X162085000Y-80700000D01*
X162085000Y-81300000D01*
G37*
%TD.AperFunction*%
%TA.AperFunction,EtchedComponent*%
%TO.C,JP2*%
G36*
X195725000Y-73680000D02*
G01*
X195225000Y-73680000D01*
X195225000Y-73080000D01*
X195725000Y-73080000D01*
X195725000Y-73680000D01*
G37*
%TD.AperFunction*%
%TA.AperFunction,EtchedComponent*%
%TO.C,JP4*%
G36*
X162085000Y-78760000D02*
G01*
X161585000Y-78760000D01*
X161585000Y-78160000D01*
X162085000Y-78160000D01*
X162085000Y-78760000D01*
G37*
%TD.AperFunction*%
%TA.AperFunction,EtchedComponent*%
%TO.C,JP6*%
G36*
X162085000Y-83840000D02*
G01*
X161585000Y-83840000D01*
X161585000Y-83240000D01*
X162085000Y-83240000D01*
X162085000Y-83840000D01*
G37*
%TD.AperFunction*%
%TA.AperFunction,EtchedComponent*%
%TO.C,JP1*%
G36*
X195725000Y-76220000D02*
G01*
X195225000Y-76220000D01*
X195225000Y-75620000D01*
X195725000Y-75620000D01*
X195725000Y-76220000D01*
G37*
%TD.AperFunction*%
%TA.AperFunction,EtchedComponent*%
%TO.C,JP7*%
G36*
X195725000Y-83840000D02*
G01*
X195225000Y-83840000D01*
X195225000Y-83240000D01*
X195725000Y-83240000D01*
X195725000Y-83840000D01*
G37*
%TD.AperFunction*%
%TA.AperFunction,EtchedComponent*%
%TO.C,JP5*%
G36*
X162085000Y-76220000D02*
G01*
X161585000Y-76220000D01*
X161585000Y-75620000D01*
X162085000Y-75620000D01*
X162085000Y-76220000D01*
G37*
%TD.AperFunction*%
%TA.AperFunction,EtchedComponent*%
%TO.C,JP8*%
G36*
X195725000Y-81300000D02*
G01*
X195225000Y-81300000D01*
X195225000Y-80700000D01*
X195725000Y-80700000D01*
X195725000Y-81300000D01*
G37*
%TD.AperFunction*%
%TD*%
D10*
%TO.P,U2,1,GPIO2_A0_D0*%
%TO.N,/ESP32C3-D0*%
X203625000Y-88620000D03*
D11*
%TO.P,U2,2,GPIO3_A1_D1*%
%TO.N,/ESP32C3-D1*%
X203625000Y-86080000D03*
%TO.P,U2,3,GPIO4_A2_D2*%
%TO.N,unconnected-(U2-GPIO4_A2_D2-Pad3)*%
X203625000Y-83540000D03*
%TO.P,U2,4,GPIO5_A3_D3*%
%TO.N,/ESP32C3-CSn*%
X203625000Y-81000000D03*
%TO.P,U2,5,GPIO6_SDA_D4*%
%TO.N,unconnected-(U2-GPIO6_SDA_D4-Pad5)*%
X203625000Y-78460000D03*
%TO.P,U2,6,GPIO7_SCL_D5*%
%TO.N,unconnected-(U2-GPIO7_SCL_D5-Pad6)*%
X203625000Y-75920000D03*
%TO.P,U2,7,GPIO21_TX_D6*%
%TO.N,/ESP32C3-TXD*%
X203625000Y-73380000D03*
%TO.P,U2,8,GPIO20_RX_D7*%
%TO.N,/ESP32C3-RXD*%
X186375000Y-73380000D03*
%TO.P,U2,9,GPIO8_SCK_D8*%
%TO.N,/ESP32C3-SCK*%
X186375000Y-75920000D03*
%TO.P,U2,10,GPIO9_MISO_D9*%
%TO.N,/ESP32C3-MISO*%
X186375000Y-78460000D03*
D12*
%TO.P,U2,11,GPIO10_MOSI_D10*%
%TO.N,/ESP32C3-MOSI*%
X186375000Y-81000000D03*
%TO.P,U2,12,3v3*%
%TO.N,unconnected-(U2-3v3-Pad12)*%
X186375000Y-83540000D03*
%TO.P,U2,13,GND*%
%TO.N,GND*%
X186375000Y-86080000D03*
%TO.P,U2,14,5v0*%
%TO.N,/ESP32C3-5v0*%
X186375000Y-88620000D03*
%TD*%
D13*
%TO.P,J2,1,Pin_1*%
%TO.N,GND*%
X144000000Y-64000000D03*
%TO.P,J2,2,Pin_2*%
X144000000Y-72000000D03*
%TO.P,J2,3,Pin_3*%
X144000000Y-80000000D03*
%TO.P,J2,4,Pin_4*%
X144000000Y-88000000D03*
%TD*%
%TO.P,J3,1,Pin_1*%
%TO.N,GND*%
X216000000Y-64000000D03*
%TO.P,J3,2,Pin_2*%
X216000000Y-72000000D03*
%TO.P,J3,3,Pin_3*%
X216000000Y-80000000D03*
%TO.P,J3,4,Pin_4*%
X216000000Y-88000000D03*
%TD*%
D10*
%TO.P,U1,1,P26_A0_D0*%
%TO.N,/RP2040-D0*%
X173625000Y-88620000D03*
D11*
%TO.P,U1,2,P27_A1_D1*%
%TO.N,/RP2040-D1*%
X173625000Y-86080000D03*
%TO.P,U1,3,P28_A2_D2*%
%TO.N,/RP2040-TXD*%
X173625000Y-83540000D03*
%TO.P,U1,4,P29_A3_D3*%
%TO.N,/RP2040-RXD*%
X173625000Y-81000000D03*
%TO.P,U1,5,P6_SDA_D4*%
%TO.N,unconnected-(U1-P6_SDA_D4-Pad5)*%
X173625000Y-78460000D03*
%TO.P,U1,6,P7_SCL_D5*%
%TO.N,unconnected-(U1-P7_SCL_D5-Pad6)*%
X173625000Y-75920000D03*
%TO.P,U1,7,P0_TX_D6*%
%TO.N,unconnected-(U1-P0_TX_D6-Pad7)*%
X173625000Y-73380000D03*
%TO.P,U1,8,P1_RX_D7*%
%TO.N,/RP2040-CSn*%
X156375000Y-73380000D03*
%TO.P,U1,9,P2_SCK_D8*%
%TO.N,/RP2040-SCK*%
X156375000Y-75920000D03*
%TO.P,U1,10,P4_MISO_D9*%
%TO.N,/RP2040-MISO*%
X156375000Y-78460000D03*
D12*
%TO.P,U1,11,P3_MOSI_D10*%
%TO.N,/RP2040-MOSI*%
X156375000Y-81000000D03*
%TO.P,U1,12,3v3*%
%TO.N,unconnected-(U1-3v3-Pad12)*%
X156375000Y-83540000D03*
%TO.P,U1,13,GND*%
%TO.N,GND*%
X156375000Y-86080000D03*
%TO.P,U1,14,5v0*%
%TO.N,/RP2040-5v0*%
X156375000Y-88620000D03*
%TD*%
D14*
%TO.P,J1,1,Pin_1*%
%TO.N,/ESP32C3-5v0*%
X181805000Y-63000000D03*
D15*
%TO.P,J1,2,Pin_2*%
%TO.N,/RP2040-5v0*%
X179265000Y-63000000D03*
%TD*%
D16*
%TO.P,JP3,1,A*%
%TO.N,/RP2040-MOSI*%
X161185000Y-81000000D03*
D17*
%TO.P,JP3,2,B*%
%TO.N,/ESP32C3-MOSI*%
X162485000Y-81000000D03*
%TD*%
D16*
%TO.P,JP2,1,A*%
%TO.N,/RP2040-RXD*%
X194825000Y-73380000D03*
D17*
%TO.P,JP2,2,B*%
%TO.N,/ESP32C3-TXD*%
X196125000Y-73380000D03*
%TD*%
D16*
%TO.P,JP4,1,A*%
%TO.N,/RP2040-MISO*%
X161185000Y-78460000D03*
D17*
%TO.P,JP4,2,B*%
%TO.N,/ESP32C3-MISO*%
X162485000Y-78460000D03*
%TD*%
D16*
%TO.P,JP6,1,A*%
%TO.N,/RP2040-CSn*%
X161185000Y-83540000D03*
D17*
%TO.P,JP6,2,B*%
%TO.N,/ESP32C3-CSn*%
X162485000Y-83540000D03*
%TD*%
D16*
%TO.P,JP1,1,A*%
%TO.N,/RP2040-TXD*%
X194825000Y-75920000D03*
D17*
%TO.P,JP1,2,B*%
%TO.N,/ESP32C3-RXD*%
X196125000Y-75920000D03*
%TD*%
D16*
%TO.P,JP7,1,A*%
%TO.N,/RP2040-D0*%
X194825000Y-83540000D03*
D17*
%TO.P,JP7,2,B*%
%TO.N,/ESP32C3-D0*%
X196125000Y-83540000D03*
%TD*%
D16*
%TO.P,JP5,1,A*%
%TO.N,/RP2040-SCK*%
X161185000Y-75920000D03*
D17*
%TO.P,JP5,2,B*%
%TO.N,/ESP32C3-SCK*%
X162485000Y-75920000D03*
%TD*%
D16*
%TO.P,JP8,1,A*%
%TO.N,/RP2040-D1*%
X194825000Y-81000000D03*
D17*
%TO.P,JP8,2,B*%
%TO.N,/ESP32C3-D1*%
X196125000Y-81000000D03*
%TD*%
D18*
%TO.N,/RP2040-CSn*%
X159500000Y-83500000D03*
%TO.N,/RP2040-TXD*%
X183000000Y-70500000D03*
%TO.N,/RP2040-RXD*%
X182000000Y-69500000D03*
%TD*%
D19*
%TO.N,/RP2040-RXD*%
X191252900Y-69792886D02*
G75*
G03*
X190545786Y-69500000I-707100J-707114D01*
G01*
%TO.N,/RP2040-TXD*%
X189697900Y-70792886D02*
G75*
G03*
X188990786Y-70500000I-707100J-707114D01*
G01*
%TO.N,/ESP32C3-RXD*%
X195060786Y-77824990D02*
G75*
G03*
X195767893Y-77532107I14J999990D01*
G01*
X195832114Y-77467900D02*
G75*
G03*
X196125000Y-76760786I-707114J707100D01*
G01*
X193277100Y-77532114D02*
G75*
G03*
X193984214Y-77825000I707100J707114D01*
G01*
X189417900Y-73672886D02*
G75*
G03*
X188710786Y-73380000I-707100J-707114D01*
G01*
%TO.N,/ESP32C3-D0*%
X197672900Y-83832886D02*
G75*
G03*
X196965786Y-83540000I-707100J-707114D01*
G01*
%TO.N,/ESP32C3-D1*%
X200897100Y-85787114D02*
G75*
G03*
X201604214Y-86080000I707100J707114D01*
G01*
%TO.N,/ESP32C3-CSn*%
X181162900Y-80022886D02*
G75*
G03*
X180455786Y-79730000I-707100J-707114D01*
G01*
X183022100Y-81882114D02*
G75*
G03*
X183729214Y-82175000I707100J707114D01*
G01*
X167949214Y-79730010D02*
G75*
G03*
X167242107Y-80022893I-14J-999990D01*
G01*
X163310786Y-83539990D02*
G75*
G03*
X164017893Y-83247107I14J999990D01*
G01*
X188126636Y-82175025D02*
G75*
G03*
X188833742Y-81882106I-36J1000025D01*
G01*
X201647900Y-80022886D02*
G75*
G03*
X200940786Y-79730000I-707100J-707114D01*
G01*
X191400064Y-79729975D02*
G75*
G03*
X190692958Y-80022894I36J-1000025D01*
G01*
%TO.N,/ESP32C3-SCK*%
X177792900Y-70792886D02*
G75*
G03*
X177085786Y-70500000I-707100J-707114D01*
G01*
X182627100Y-75627114D02*
G75*
G03*
X183334214Y-75920000I707100J707114D01*
G01*
X170914214Y-70500010D02*
G75*
G03*
X170207107Y-70792893I-14J-999990D01*
G01*
X164665786Y-75919990D02*
G75*
G03*
X165372893Y-75627107I14J999990D01*
G01*
%TO.N,/ESP32C3-MISO*%
X184167100Y-78167114D02*
G75*
G03*
X184874214Y-78460000I707100J707114D01*
G01*
X177292900Y-71292886D02*
G75*
G03*
X176585786Y-71000000I-707100J-707114D01*
G01*
X171414214Y-71000010D02*
G75*
G03*
X170707107Y-71292893I-14J-999990D01*
G01*
X163125786Y-78459990D02*
G75*
G03*
X163832893Y-78167107I14J999990D01*
G01*
%TO.N,/ESP32C3-MOSI*%
X163100786Y-80999990D02*
G75*
G03*
X163807893Y-80707107I14J999990D01*
G01*
X164207114Y-80307900D02*
G75*
G03*
X164500000Y-79600786I-707114J707100D01*
G01*
X183499990Y-78914214D02*
G75*
G03*
X183207107Y-78207107I-999990J14D01*
G01*
X164792886Y-78207100D02*
G75*
G03*
X164500000Y-78914214I707114J-707100D01*
G01*
X176792900Y-71792886D02*
G75*
G03*
X176085786Y-71500000I-707100J-707114D01*
G01*
X171914214Y-71500010D02*
G75*
G03*
X171207107Y-71792893I-14J-999990D01*
G01*
X184207100Y-80707114D02*
G75*
G03*
X184914214Y-81000000I707100J707114D01*
G01*
X183500010Y-79585786D02*
G75*
G03*
X183792893Y-80292893I999990J-14D01*
G01*
%TO.N,/RP2040-D1*%
X194398427Y-81000020D02*
G75*
G03*
X192984214Y-81585788I-27J-1999980D01*
G01*
X188931573Y-84809980D02*
G75*
G03*
X190345785Y-84224213I27J1999980D01*
G01*
%TO.N,/RP2040-D0*%
X193763427Y-83540020D02*
G75*
G03*
X192349215Y-84125787I-27J-1999980D01*
G01*
X176866573Y-88619980D02*
G75*
G03*
X178280786Y-88034212I27J1999980D01*
G01*
X188296573Y-87349980D02*
G75*
G03*
X189710786Y-86764212I27J1999980D01*
G01*
X179793427Y-87350020D02*
G75*
G03*
X178379215Y-87935787I-27J-1999980D01*
G01*
%TO.N,/RP2040-D1*%
X179379214Y-84810010D02*
G75*
G03*
X178672107Y-85102893I-14J-999990D01*
G01*
X177280786Y-86079990D02*
G75*
G03*
X177987893Y-85787107I14J999990D01*
G01*
%TO.N,/ESP32C3-MOSI*%
X162485000Y-81000000D02*
X163100786Y-81000000D01*
X184914214Y-81000000D02*
X187375000Y-81000000D01*
X163807893Y-80707107D02*
X164207107Y-80307893D01*
X183500000Y-78914214D02*
X183500000Y-79585786D01*
X164500000Y-79600786D02*
X164500000Y-78914214D01*
X164792893Y-78207107D02*
X171207107Y-71792893D01*
X171914214Y-71500000D02*
X176085786Y-71500000D01*
X176792893Y-71792893D02*
X183207107Y-78207107D01*
X183792893Y-80292893D02*
X184207107Y-80707107D01*
%TO.N,/ESP32C3-MISO*%
X162485000Y-78460000D02*
X163125786Y-78460000D01*
X163832893Y-78167107D02*
X170707107Y-71292893D01*
X171414214Y-71000000D02*
X176585786Y-71000000D01*
X184874214Y-78460000D02*
X187375000Y-78460000D01*
X177292893Y-71292893D02*
X184167107Y-78167107D01*
%TO.N,/ESP32C3-SCK*%
X162485000Y-75920000D02*
X164665786Y-75920000D01*
X165372893Y-75627107D02*
X170207107Y-70792893D01*
X170914214Y-70500000D02*
X177085786Y-70500000D01*
X177792893Y-70792893D02*
X182627107Y-75627107D01*
X183334214Y-75920000D02*
X187375000Y-75920000D01*
%TO.N,/RP2040-TXD*%
X183000000Y-70500000D02*
X188990786Y-70500000D01*
X189697893Y-70792893D02*
X194825000Y-75920000D01*
%TO.N,/RP2040-RXD*%
X182000000Y-69500000D02*
X190545786Y-69500000D01*
X191252893Y-69792893D02*
X194825000Y-73365000D01*
X194825000Y-73365000D02*
X194825000Y-73380000D01*
%TO.N,/RP2040-CSn*%
X159500000Y-83500000D02*
X161145000Y-83500000D01*
X161145000Y-83500000D02*
X161185000Y-83540000D01*
%TO.N,/ESP32C3-RXD*%
X187375000Y-73380000D02*
X188710786Y-73380000D01*
X189417893Y-73672893D02*
X193277107Y-77532107D01*
X196125000Y-76760786D02*
X196125000Y-75920000D01*
X195767893Y-77532107D02*
X195832107Y-77467893D01*
X193984214Y-77825000D02*
X195060786Y-77825000D01*
%TO.N,/ESP32C3-TXD*%
X202625000Y-73380000D02*
X196125000Y-73380000D01*
%TO.N,/RP2040-MOSI*%
X157375000Y-81000000D02*
X161185000Y-81000000D01*
%TO.N,/RP2040-MISO*%
X157375000Y-78460000D02*
X161185000Y-78460000D01*
%TO.N,/RP2040-SCK*%
X157375000Y-75920000D02*
X161185000Y-75920000D01*
%TO.N,/ESP32C3-CSn*%
X191400064Y-79730000D02*
X200940786Y-79730000D01*
X201647893Y-80022893D02*
X202625000Y-81000000D01*
X188833743Y-81882107D02*
X190692957Y-80022893D01*
X164017893Y-83247107D02*
X167242107Y-80022893D01*
X162485000Y-83540000D02*
X163310786Y-83540000D01*
X183729214Y-82175000D02*
X188126636Y-82175000D01*
X181162893Y-80022893D02*
X183022107Y-81882107D01*
X167949214Y-79730000D02*
X180455786Y-79730000D01*
%TO.N,/RP2040-D0*%
X179793427Y-87350000D02*
X188296573Y-87350000D01*
X178280787Y-88034213D02*
X178379214Y-87935786D01*
X189710787Y-86764213D02*
X192349214Y-84125786D01*
X193763427Y-83540000D02*
X194825000Y-83540000D01*
X172625000Y-88620000D02*
X176866573Y-88620000D01*
%TO.N,/ESP32C3-D0*%
X202625000Y-88620000D02*
X202460000Y-88620000D01*
X196965786Y-83540000D02*
X196125000Y-83540000D01*
X202460000Y-88620000D02*
X197672893Y-83832893D01*
%TO.N,/RP2040-D1*%
X188931573Y-84810000D02*
X179379214Y-84810000D01*
X178672107Y-85102893D02*
X177987893Y-85787107D01*
X194825000Y-81000000D02*
X194398427Y-81000000D01*
X177280786Y-86080000D02*
X172625000Y-86080000D01*
X192984213Y-81585787D02*
X190345786Y-84224214D01*
%TO.N,/ESP32C3-D1*%
X202625000Y-86080000D02*
X201604214Y-86080000D01*
X196125000Y-81015000D02*
X196125000Y-81000000D01*
X200897107Y-85787107D02*
X196125000Y-81015000D01*
%TD*%
%TA.AperFunction,Conductor*%
%TO.N,/ESP32C3-5v0*%
G36*
X211943039Y-60270185D02*
G01*
X211988794Y-60322989D01*
X212000000Y-60374500D01*
X212000000Y-91625500D01*
X211980315Y-91692539D01*
X211927511Y-91738294D01*
X211876000Y-91749500D01*
X202002024Y-91749500D01*
X201997974Y-91749367D01*
X201967355Y-91747360D01*
X201916413Y-91744021D01*
X201734560Y-91731015D01*
X201726880Y-91729980D01*
X201610590Y-91706848D01*
X201466352Y-91675472D01*
X201459596Y-91673597D01*
X201341465Y-91633497D01*
X201339727Y-91632878D01*
X201208258Y-91583842D01*
X201202499Y-91581356D01*
X201088204Y-91524992D01*
X201085912Y-91523802D01*
X200965091Y-91457828D01*
X200960357Y-91454961D01*
X200853349Y-91383461D01*
X200850639Y-91381543D01*
X200810592Y-91351564D01*
X200741353Y-91299732D01*
X200737648Y-91296729D01*
X200640492Y-91211526D01*
X200637549Y-91208769D01*
X200541228Y-91112448D01*
X200538469Y-91109502D01*
X200505450Y-91071851D01*
X200453265Y-91012345D01*
X200450271Y-91008652D01*
X200368454Y-90899358D01*
X200366537Y-90896649D01*
X200295037Y-90789641D01*
X200292170Y-90784907D01*
X200226173Y-90664042D01*
X200225024Y-90661830D01*
X200168635Y-90547483D01*
X200166156Y-90541740D01*
X200117103Y-90410224D01*
X200116531Y-90408618D01*
X200076395Y-90290383D01*
X200074531Y-90283666D01*
X200043150Y-90139408D01*
X200020015Y-90023102D01*
X200018985Y-90015459D01*
X200005992Y-89833793D01*
X200003256Y-89792056D01*
X200000633Y-89752018D01*
X200000500Y-89747963D01*
X200000500Y-89618886D01*
X200000499Y-89618872D01*
X199987202Y-89517873D01*
X199981260Y-89472743D01*
X199981308Y-89472435D01*
X199980945Y-89470351D01*
X199979111Y-89456425D01*
X199978741Y-89452772D01*
X199973349Y-89377390D01*
X199968036Y-89362672D01*
X199967062Y-89362866D01*
X199966271Y-89358891D01*
X199966270Y-89358887D01*
X199966270Y-89358884D01*
X199923016Y-89197457D01*
X199923027Y-89196965D01*
X199922142Y-89194197D01*
X199914592Y-89166019D01*
X199913912Y-89163214D01*
X199903193Y-89113936D01*
X199898999Y-89107032D01*
X199828437Y-88936680D01*
X199828324Y-88935638D01*
X199825946Y-88930666D01*
X199809888Y-88891901D01*
X199802310Y-88873605D01*
X199801503Y-88871552D01*
X199796786Y-88858907D01*
X199792299Y-88853354D01*
X199787305Y-88844705D01*
X199699452Y-88692538D01*
X199699028Y-88690789D01*
X199698683Y-88690328D01*
X199694619Y-88684166D01*
X199666924Y-88636197D01*
X199665238Y-88634000D01*
X199657175Y-88621616D01*
X199651936Y-88616665D01*
X199538517Y-88468855D01*
X199537535Y-88466315D01*
X199536251Y-88465031D01*
X199530899Y-88458927D01*
X199507281Y-88428148D01*
X199507274Y-88428140D01*
X199494209Y-88415075D01*
X199485357Y-88404859D01*
X199480503Y-88401369D01*
X199348629Y-88269495D01*
X199346733Y-88266023D01*
X199334923Y-88255789D01*
X199321860Y-88242726D01*
X199321851Y-88242718D01*
X199321851Y-88242717D01*
X199291066Y-88219096D01*
X199284968Y-88213747D01*
X199284480Y-88213259D01*
X199281145Y-88211483D01*
X199133331Y-88098060D01*
X199130528Y-88094222D01*
X199116000Y-88084762D01*
X199113803Y-88083076D01*
X199065834Y-88055380D01*
X199059850Y-88051433D01*
X199057458Y-88050545D01*
X198896643Y-87957699D01*
X198893067Y-87953948D01*
X198878431Y-87948490D01*
X198876372Y-87947680D01*
X198819329Y-87924052D01*
X198814844Y-87921906D01*
X198813318Y-87921562D01*
X198642964Y-87850999D01*
X198638387Y-87847311D01*
X198586774Y-87836083D01*
X198583906Y-87835387D01*
X198555831Y-87827864D01*
X198553277Y-87827048D01*
X198552539Y-87826983D01*
X198391112Y-87783729D01*
X198387134Y-87782938D01*
X198387407Y-87781565D01*
X198377011Y-87776964D01*
X198297219Y-87771257D01*
X198293555Y-87770885D01*
X198284254Y-87769661D01*
X198279666Y-87769056D01*
X198277721Y-87768717D01*
X198277253Y-87768739D01*
X198131127Y-87749500D01*
X198131120Y-87749500D01*
X198000099Y-87749500D01*
X197995239Y-87749500D01*
X197990815Y-87749342D01*
X197975275Y-87748230D01*
X197968300Y-87749500D01*
X192031699Y-87749500D01*
X192026856Y-87748077D01*
X192009184Y-87749342D01*
X192004760Y-87749500D01*
X192000500Y-87749500D01*
X192000000Y-87749500D01*
X191868880Y-87749500D01*
X191868874Y-87749500D01*
X191868869Y-87749501D01*
X191722744Y-87768739D01*
X191722433Y-87768690D01*
X191720324Y-87769058D01*
X191706448Y-87770884D01*
X191702781Y-87771256D01*
X191627427Y-87776646D01*
X191612674Y-87781975D01*
X191612866Y-87782938D01*
X191608887Y-87783729D01*
X191447458Y-87826983D01*
X191446962Y-87826971D01*
X191444161Y-87827867D01*
X191416095Y-87835387D01*
X191413226Y-87836083D01*
X191363938Y-87846805D01*
X191357035Y-87850999D01*
X191186680Y-87921562D01*
X191185639Y-87921673D01*
X191180664Y-87924054D01*
X191123630Y-87947678D01*
X191121571Y-87948488D01*
X191108906Y-87953211D01*
X191103356Y-87957699D01*
X190942540Y-88050546D01*
X190940785Y-88050971D01*
X190940315Y-88051324D01*
X190934157Y-88055385D01*
X190886196Y-88083076D01*
X190883997Y-88084764D01*
X190871612Y-88092827D01*
X190866665Y-88098063D01*
X190718857Y-88211481D01*
X190716313Y-88212464D01*
X190715028Y-88213750D01*
X190708928Y-88219100D01*
X190678144Y-88242722D01*
X190678138Y-88242727D01*
X190665074Y-88255791D01*
X190654856Y-88264645D01*
X190651370Y-88269495D01*
X190519495Y-88401370D01*
X190516024Y-88403265D01*
X190505791Y-88415074D01*
X190492727Y-88428138D01*
X190492722Y-88428144D01*
X190469100Y-88458928D01*
X190463750Y-88465028D01*
X190463258Y-88465519D01*
X190461481Y-88468857D01*
X190348063Y-88616665D01*
X190344222Y-88619468D01*
X190334764Y-88633997D01*
X190333076Y-88636196D01*
X190305385Y-88684157D01*
X190301433Y-88690148D01*
X190300546Y-88692540D01*
X190207699Y-88853356D01*
X190203948Y-88856931D01*
X190198488Y-88871571D01*
X190197678Y-88873630D01*
X190174054Y-88930664D01*
X190171905Y-88935155D01*
X190171562Y-88936680D01*
X190100999Y-89107035D01*
X190097311Y-89111610D01*
X190086083Y-89163226D01*
X190085387Y-89166095D01*
X190077867Y-89194161D01*
X190077047Y-89196724D01*
X190076983Y-89197458D01*
X190033729Y-89358887D01*
X190032938Y-89362866D01*
X190031566Y-89362593D01*
X190026963Y-89372990D01*
X190021256Y-89452781D01*
X190020884Y-89456448D01*
X190019058Y-89470324D01*
X190018717Y-89472278D01*
X190018739Y-89472744D01*
X189999501Y-89618869D01*
X189999500Y-89618886D01*
X189999500Y-89747976D01*
X189999367Y-89752033D01*
X189994021Y-89833585D01*
X189981015Y-90015438D01*
X189979980Y-90023118D01*
X189956848Y-90139408D01*
X189925472Y-90283646D01*
X189923597Y-90290402D01*
X189883497Y-90408533D01*
X189882878Y-90410271D01*
X189833842Y-90541740D01*
X189831356Y-90547499D01*
X189774992Y-90661794D01*
X189773802Y-90664086D01*
X189707828Y-90784907D01*
X189704961Y-90789641D01*
X189633461Y-90896649D01*
X189631543Y-90899359D01*
X189549744Y-91008631D01*
X189546723Y-91012357D01*
X189461529Y-91109502D01*
X189458755Y-91112464D01*
X189362464Y-91208755D01*
X189359502Y-91211529D01*
X189262357Y-91296723D01*
X189258631Y-91299744D01*
X189149359Y-91381543D01*
X189146649Y-91383461D01*
X189039641Y-91454961D01*
X189034907Y-91457828D01*
X188914086Y-91523802D01*
X188911794Y-91524992D01*
X188797499Y-91581356D01*
X188791740Y-91583842D01*
X188660271Y-91632878D01*
X188658533Y-91633497D01*
X188540402Y-91673597D01*
X188533646Y-91675472D01*
X188389408Y-91706848D01*
X188273118Y-91729980D01*
X188265438Y-91731015D01*
X188083585Y-91744021D01*
X188027608Y-91747690D01*
X188002025Y-91749367D01*
X187997976Y-91749500D01*
X181124000Y-91749500D01*
X181056961Y-91729815D01*
X181011206Y-91677011D01*
X181000000Y-91625500D01*
X181000000Y-89120000D01*
X184118594Y-89120000D01*
X184201400Y-89297578D01*
X184201402Y-89297582D01*
X184336886Y-89491073D01*
X184336891Y-89491079D01*
X184503920Y-89658108D01*
X184503926Y-89658113D01*
X184697420Y-89793599D01*
X184697422Y-89793600D01*
X184911507Y-89893429D01*
X184911516Y-89893433D01*
X185139673Y-89954567D01*
X185139683Y-89954569D01*
X185316053Y-89969999D01*
X185316054Y-89970000D01*
X185875000Y-89970000D01*
X185875000Y-89120000D01*
X184118594Y-89120000D01*
X181000000Y-89120000D01*
X181000000Y-88099500D01*
X181019685Y-88032461D01*
X181072489Y-87986706D01*
X181124000Y-87975500D01*
X183991334Y-87975500D01*
X184058373Y-87995185D01*
X184104128Y-88047989D01*
X184113283Y-88111665D01*
X184118593Y-88120000D01*
X187339237Y-88120000D01*
X187232685Y-88135320D01*
X187101900Y-88195048D01*
X186993239Y-88289202D01*
X186915507Y-88410156D01*
X186875000Y-88548111D01*
X186875000Y-88691889D01*
X186915507Y-88829844D01*
X186993239Y-88950798D01*
X187101900Y-89044952D01*
X187232685Y-89104680D01*
X187339237Y-89120000D01*
X186875000Y-89120000D01*
X186875000Y-89970000D01*
X187433946Y-89970000D01*
X187433946Y-89969999D01*
X187610316Y-89954569D01*
X187610326Y-89954567D01*
X187838483Y-89893433D01*
X187838492Y-89893429D01*
X188052577Y-89793600D01*
X188052579Y-89793599D01*
X188246073Y-89658113D01*
X188246079Y-89658108D01*
X188413105Y-89491082D01*
X188548601Y-89297576D01*
X188631406Y-89120000D01*
X187410763Y-89120000D01*
X187517315Y-89104680D01*
X187648100Y-89044952D01*
X187756761Y-88950798D01*
X187834493Y-88829844D01*
X187875000Y-88691889D01*
X187875000Y-88548111D01*
X187834493Y-88410156D01*
X187756761Y-88289202D01*
X187648100Y-88195048D01*
X187517315Y-88135320D01*
X187410763Y-88120000D01*
X188631405Y-88120000D01*
X188630917Y-88118954D01*
X188620425Y-88049876D01*
X188648944Y-87986092D01*
X188707420Y-87947852D01*
X188729411Y-87943328D01*
X188737045Y-87942469D01*
X189024541Y-87876853D01*
X189302883Y-87779461D01*
X189568571Y-87651516D01*
X189818262Y-87494628D01*
X190048818Y-87310770D01*
X190097204Y-87262384D01*
X190097207Y-87262383D01*
X190178439Y-87181151D01*
X190206783Y-87152808D01*
X190206783Y-87152807D01*
X190216984Y-87142607D01*
X190216991Y-87142597D01*
X192790077Y-84569512D01*
X192793025Y-84566752D01*
X192865849Y-84502889D01*
X192923627Y-84452220D01*
X192930052Y-84447290D01*
X193072794Y-84351915D01*
X193079808Y-84347865D01*
X193233775Y-84271939D01*
X193241277Y-84268832D01*
X193403834Y-84213653D01*
X193411655Y-84211558D01*
X193580034Y-84178068D01*
X193588066Y-84177011D01*
X193693280Y-84170116D01*
X193761696Y-84165633D01*
X193765750Y-84165500D01*
X193811244Y-84165500D01*
X193878281Y-84185185D01*
X193924036Y-84237988D01*
X193940095Y-84273153D01*
X193940105Y-84273171D01*
X194017896Y-84394216D01*
X194017899Y-84394220D01*
X194017903Y-84394226D01*
X194017908Y-84394231D01*
X194017912Y-84394237D01*
X194085447Y-84472177D01*
X194112057Y-84502887D01*
X194112060Y-84502890D01*
X194220830Y-84597139D01*
X194281307Y-84636004D01*
X194341778Y-84674868D01*
X194341780Y-84674868D01*
X194341784Y-84674871D01*
X194472700Y-84734658D01*
X194610655Y-84775165D01*
X194753111Y-84795647D01*
X194753114Y-84795647D01*
X195325000Y-84795647D01*
X195396961Y-84790500D01*
X195434270Y-84779544D01*
X195486848Y-84775784D01*
X195625000Y-84795647D01*
X195625003Y-84795647D01*
X196196886Y-84795647D01*
X196196889Y-84795647D01*
X196339345Y-84775165D01*
X196477300Y-84734658D01*
X196608216Y-84674871D01*
X196729170Y-84597139D01*
X196729174Y-84597136D01*
X196837943Y-84502887D01*
X196884165Y-84449543D01*
X196932088Y-84394237D01*
X196932089Y-84394234D01*
X196932097Y-84394226D01*
X197009051Y-84274481D01*
X197061854Y-84228728D01*
X197131013Y-84218784D01*
X197188851Y-84243145D01*
X197227321Y-84272663D01*
X197233424Y-84278015D01*
X197245410Y-84290000D01*
X199393186Y-86437776D01*
X201338181Y-88382771D01*
X201371666Y-88444094D01*
X201374500Y-88470452D01*
X201374500Y-89517870D01*
X201374501Y-89517876D01*
X201380908Y-89577483D01*
X201431202Y-89712328D01*
X201431206Y-89712335D01*
X201517452Y-89827544D01*
X201517455Y-89827547D01*
X201632664Y-89913793D01*
X201632671Y-89913797D01*
X201767517Y-89964091D01*
X201767516Y-89964091D01*
X201774444Y-89964835D01*
X201827127Y-89970500D01*
X205422872Y-89970499D01*
X205482483Y-89964091D01*
X205617331Y-89913796D01*
X205732546Y-89827546D01*
X205818796Y-89712331D01*
X205869091Y-89577483D01*
X205875500Y-89517873D01*
X205875499Y-87722128D01*
X205869091Y-87662517D01*
X205864987Y-87651514D01*
X205818797Y-87527671D01*
X205818793Y-87527664D01*
X205732547Y-87412455D01*
X205732544Y-87412452D01*
X205617335Y-87326206D01*
X205617328Y-87326202D01*
X205522335Y-87290772D01*
X205466401Y-87248901D01*
X205441984Y-87183436D01*
X205456836Y-87115163D01*
X205477987Y-87086909D01*
X205477986Y-87086909D01*
X205613495Y-86951401D01*
X205749035Y-86757830D01*
X205848903Y-86543663D01*
X205910063Y-86315408D01*
X205930659Y-86080000D01*
X205910063Y-85844592D01*
X205848903Y-85616337D01*
X205749035Y-85402171D01*
X205749034Y-85402169D01*
X205613494Y-85208597D01*
X205446403Y-85041506D01*
X205376410Y-84992497D01*
X205260838Y-84911573D01*
X205217215Y-84856999D01*
X205210021Y-84787500D01*
X205241543Y-84725145D01*
X205260836Y-84708428D01*
X205446401Y-84578495D01*
X205613495Y-84411401D01*
X205749035Y-84217830D01*
X205848903Y-84003663D01*
X205910063Y-83775408D01*
X205930659Y-83540000D01*
X205910063Y-83304592D01*
X205848903Y-83076337D01*
X205749035Y-82862171D01*
X205749034Y-82862169D01*
X205613494Y-82668597D01*
X205446402Y-82501505D01*
X205260840Y-82371574D01*
X205217215Y-82316997D01*
X205210021Y-82247499D01*
X205241544Y-82185144D01*
X205260824Y-82168436D01*
X205446401Y-82038495D01*
X205613495Y-81871401D01*
X205749035Y-81677830D01*
X205848903Y-81463663D01*
X205910063Y-81235408D01*
X205930659Y-81000000D01*
X205910063Y-80764592D01*
X205848903Y-80536337D01*
X205749035Y-80322171D01*
X205737896Y-80306262D01*
X205613494Y-80128597D01*
X205446403Y-79961506D01*
X205363664Y-79903572D01*
X205260838Y-79831573D01*
X205217215Y-79776999D01*
X205210021Y-79707500D01*
X205241543Y-79645145D01*
X205260836Y-79628428D01*
X205446401Y-79498495D01*
X205613495Y-79331401D01*
X205749035Y-79137830D01*
X205848903Y-78923663D01*
X205910063Y-78695408D01*
X205930659Y-78460000D01*
X205910063Y-78224592D01*
X205848903Y-77996337D01*
X205749035Y-77782171D01*
X205749034Y-77782169D01*
X205613494Y-77588597D01*
X205446403Y-77421506D01*
X205376410Y-77372497D01*
X205260838Y-77291573D01*
X205217215Y-77236999D01*
X205210021Y-77167500D01*
X205241543Y-77105145D01*
X205260836Y-77088428D01*
X205446401Y-76958495D01*
X205613495Y-76791401D01*
X205749035Y-76597830D01*
X205848903Y-76383663D01*
X205910063Y-76155408D01*
X205930659Y-75920000D01*
X205910063Y-75684592D01*
X205848903Y-75456337D01*
X205749035Y-75242171D01*
X205749034Y-75242169D01*
X205613494Y-75048597D01*
X205446403Y-74881506D01*
X205308761Y-74785129D01*
X205260838Y-74751573D01*
X205217215Y-74696999D01*
X205210021Y-74627500D01*
X205241543Y-74565145D01*
X205260836Y-74548428D01*
X205446401Y-74418495D01*
X205613495Y-74251401D01*
X205749035Y-74057830D01*
X205848903Y-73843663D01*
X205910063Y-73615408D01*
X205930659Y-73380000D01*
X205910063Y-73144592D01*
X205848903Y-72916337D01*
X205749035Y-72702171D01*
X205749034Y-72702169D01*
X205613494Y-72508597D01*
X205446402Y-72341505D01*
X205252830Y-72205965D01*
X205252828Y-72205964D01*
X205136291Y-72151622D01*
X205038663Y-72106097D01*
X205038659Y-72106096D01*
X205038655Y-72106094D01*
X204810413Y-72044938D01*
X204810403Y-72044936D01*
X204633967Y-72029500D01*
X204633966Y-72029500D01*
X202616034Y-72029500D01*
X202616033Y-72029500D01*
X202439596Y-72044936D01*
X202439586Y-72044938D01*
X202211344Y-72106094D01*
X202211335Y-72106098D01*
X201997171Y-72205964D01*
X201997169Y-72205965D01*
X201803597Y-72341505D01*
X201636506Y-72508597D01*
X201636501Y-72508603D01*
X201501348Y-72701623D01*
X201446771Y-72745248D01*
X201399773Y-72754500D01*
X197138758Y-72754500D01*
X197071719Y-72734815D01*
X197025964Y-72682012D01*
X197009904Y-72646846D01*
X197009904Y-72646845D01*
X197009899Y-72646838D01*
X197009894Y-72646828D01*
X196932103Y-72525783D01*
X196932101Y-72525781D01*
X196932097Y-72525774D01*
X196917219Y-72508604D01*
X196837958Y-72417130D01*
X196837941Y-72417111D01*
X196837940Y-72417110D01*
X196729170Y-72322861D01*
X196693937Y-72300218D01*
X196608221Y-72245131D01*
X196608217Y-72245129D01*
X196608216Y-72245129D01*
X196477300Y-72185342D01*
X196379158Y-72156525D01*
X196339342Y-72144834D01*
X196196889Y-72124353D01*
X195625000Y-72124353D01*
X195624997Y-72124353D01*
X195553040Y-72129499D01*
X195515728Y-72140455D01*
X195463149Y-72144215D01*
X195325000Y-72124353D01*
X194753111Y-72124353D01*
X194717320Y-72129499D01*
X194610660Y-72144834D01*
X194610646Y-72144837D01*
X194587530Y-72151624D01*
X194517661Y-72151622D01*
X194464918Y-72120327D01*
X191755962Y-69411371D01*
X191755950Y-69411357D01*
X191733498Y-69388906D01*
X191733482Y-69388877D01*
X191619858Y-69275255D01*
X191619854Y-69275251D01*
X191563503Y-69232012D01*
X191450808Y-69145540D01*
X191450804Y-69145538D01*
X191450802Y-69145536D01*
X191312600Y-69065747D01*
X191266270Y-69038999D01*
X191266266Y-69038997D01*
X191069396Y-68957453D01*
X190863577Y-68902307D01*
X190863574Y-68902306D01*
X190652332Y-68874499D01*
X190652323Y-68874498D01*
X190652319Y-68874498D01*
X190652311Y-68874498D01*
X190545776Y-68874500D01*
X182703748Y-68874500D01*
X182636709Y-68854815D01*
X182611600Y-68833474D01*
X182605873Y-68827114D01*
X182605869Y-68827110D01*
X182452734Y-68715851D01*
X182452729Y-68715848D01*
X182279807Y-68638857D01*
X182279802Y-68638855D01*
X182134001Y-68607865D01*
X182094646Y-68599500D01*
X181905354Y-68599500D01*
X181872897Y-68606398D01*
X181720197Y-68638855D01*
X181720192Y-68638857D01*
X181547270Y-68715848D01*
X181547265Y-68715851D01*
X181394129Y-68827111D01*
X181267465Y-68967785D01*
X181231387Y-69030276D01*
X181180820Y-69078492D01*
X181112213Y-69091715D01*
X181047348Y-69065747D01*
X181006820Y-69008833D01*
X181000000Y-68968276D01*
X181000000Y-64474000D01*
X181019685Y-64406961D01*
X181072489Y-64361206D01*
X181124000Y-64350000D01*
X181305000Y-64350000D01*
X181305000Y-63071889D01*
X181345507Y-63209844D01*
X181423239Y-63330798D01*
X181531900Y-63424952D01*
X181662685Y-63484680D01*
X181769237Y-63500000D01*
X181840763Y-63500000D01*
X182305000Y-63500000D01*
X182305000Y-64350000D01*
X182702828Y-64350000D01*
X182702844Y-64349999D01*
X182762372Y-64343598D01*
X182762379Y-64343596D01*
X182897086Y-64293354D01*
X182897093Y-64293350D01*
X183012187Y-64207190D01*
X183012190Y-64207187D01*
X183098350Y-64092093D01*
X183098354Y-64092086D01*
X183148596Y-63957379D01*
X183148598Y-63957372D01*
X183154999Y-63897844D01*
X183155000Y-63897827D01*
X183155000Y-63500000D01*
X182305000Y-63500000D01*
X181840763Y-63500000D01*
X181947315Y-63484680D01*
X182078100Y-63424952D01*
X182186761Y-63330798D01*
X182264493Y-63209844D01*
X182305000Y-63071889D01*
X182305000Y-62928111D01*
X182264493Y-62790156D01*
X182186761Y-62669202D01*
X182078100Y-62575048D01*
X181947315Y-62515320D01*
X181840763Y-62500000D01*
X181769237Y-62500000D01*
X181662685Y-62515320D01*
X181531900Y-62575048D01*
X181423239Y-62669202D01*
X181345507Y-62790156D01*
X181305000Y-62928111D01*
X181305000Y-61650000D01*
X182305000Y-61650000D01*
X182305000Y-62500000D01*
X183155000Y-62500000D01*
X183155000Y-62102172D01*
X183154999Y-62102155D01*
X183148598Y-62042627D01*
X183148596Y-62042620D01*
X183098354Y-61907913D01*
X183098350Y-61907906D01*
X183012190Y-61792812D01*
X183012187Y-61792809D01*
X182897093Y-61706649D01*
X182897086Y-61706645D01*
X182762379Y-61656403D01*
X182762372Y-61656401D01*
X182702844Y-61650000D01*
X182305000Y-61650000D01*
X181305000Y-61650000D01*
X181124000Y-61650000D01*
X181056961Y-61630315D01*
X181011206Y-61577511D01*
X181000000Y-61526000D01*
X181000000Y-60374500D01*
X181019685Y-60307461D01*
X181072489Y-60261706D01*
X181124000Y-60250500D01*
X211876000Y-60250500D01*
X211943039Y-60270185D01*
G37*
%TD.AperFunction*%
%TD*%
%TA.AperFunction,Conductor*%
%TO.N,/RP2040-5v0*%
G36*
X179943039Y-60270185D02*
G01*
X179988794Y-60322989D01*
X180000000Y-60374500D01*
X180000000Y-61658534D01*
X179980315Y-61725573D01*
X179927511Y-61771328D01*
X179858353Y-61781272D01*
X179823596Y-61770916D01*
X179765000Y-61743592D01*
X179765000Y-62928111D01*
X179724493Y-62790156D01*
X179646761Y-62669202D01*
X179538100Y-62575048D01*
X179407315Y-62515320D01*
X179300763Y-62500000D01*
X179229237Y-62500000D01*
X179122685Y-62515320D01*
X178991900Y-62575048D01*
X178883239Y-62669202D01*
X178805507Y-62790156D01*
X178765000Y-62928111D01*
X178765000Y-63071889D01*
X178805507Y-63209844D01*
X178883239Y-63330798D01*
X178991900Y-63424952D01*
X179122685Y-63484680D01*
X179229237Y-63500000D01*
X179300763Y-63500000D01*
X179407315Y-63484680D01*
X179538100Y-63424952D01*
X179646761Y-63330798D01*
X179724493Y-63209844D01*
X179765000Y-63071889D01*
X179765000Y-64256404D01*
X179823594Y-64229082D01*
X179892671Y-64218590D01*
X179956455Y-64247110D01*
X179994695Y-64305586D01*
X179999999Y-64341464D01*
X180000000Y-71816047D01*
X179980315Y-71883086D01*
X179927511Y-71928841D01*
X179858353Y-71938785D01*
X179794797Y-71909760D01*
X179788319Y-71903728D01*
X178295962Y-70411371D01*
X178295950Y-70411357D01*
X178273498Y-70388906D01*
X178273482Y-70388877D01*
X178159858Y-70275255D01*
X178159854Y-70275251D01*
X177990818Y-70145548D01*
X177990808Y-70145540D01*
X177990804Y-70145538D01*
X177990802Y-70145536D01*
X177873799Y-70077986D01*
X177806270Y-70038999D01*
X177806266Y-70038997D01*
X177609396Y-69957453D01*
X177403577Y-69902307D01*
X177403574Y-69902306D01*
X177192332Y-69874499D01*
X177192323Y-69874498D01*
X177192319Y-69874498D01*
X177192311Y-69874498D01*
X177085776Y-69874500D01*
X170872935Y-69874500D01*
X170872637Y-69874508D01*
X170807680Y-69874508D01*
X170596427Y-69902316D01*
X170596424Y-69902317D01*
X170390609Y-69957462D01*
X170390603Y-69957464D01*
X170390601Y-69957465D01*
X170313316Y-69989476D01*
X170193732Y-70039008D01*
X170009196Y-70145548D01*
X169840155Y-70275255D01*
X169813619Y-70301790D01*
X169709330Y-70406076D01*
X169709260Y-70406149D01*
X164933480Y-75181928D01*
X164927376Y-75187282D01*
X164865990Y-75234383D01*
X164837957Y-75250567D01*
X164777803Y-75275483D01*
X164746534Y-75283861D01*
X164669755Y-75293968D01*
X164661655Y-75294499D01*
X164586106Y-75294499D01*
X164586090Y-75294500D01*
X163498758Y-75294500D01*
X163431719Y-75274815D01*
X163385964Y-75222012D01*
X163369904Y-75186845D01*
X163369899Y-75186838D01*
X163369894Y-75186828D01*
X163292103Y-75065783D01*
X163292101Y-75065781D01*
X163292097Y-75065774D01*
X163277219Y-75048604D01*
X163197958Y-74957130D01*
X163197941Y-74957111D01*
X163197940Y-74957110D01*
X163089170Y-74862861D01*
X163053937Y-74840218D01*
X162968221Y-74785131D01*
X162968217Y-74785129D01*
X162968216Y-74785129D01*
X162837300Y-74725342D01*
X162739158Y-74696525D01*
X162699342Y-74684834D01*
X162556889Y-74664353D01*
X161985000Y-74664353D01*
X161984997Y-74664353D01*
X161913040Y-74669499D01*
X161875728Y-74680455D01*
X161823149Y-74684215D01*
X161685000Y-74664353D01*
X161113111Y-74664353D01*
X161113110Y-74664353D01*
X160970658Y-74684834D01*
X160970656Y-74684834D01*
X160832700Y-74725342D01*
X160701784Y-74785129D01*
X160701782Y-74785129D01*
X160580828Y-74862862D01*
X160580824Y-74862864D01*
X160472061Y-74957108D01*
X160472058Y-74957110D01*
X160377911Y-75065762D01*
X160377896Y-75065783D01*
X160300105Y-75186828D01*
X160300095Y-75186846D01*
X160284036Y-75222012D01*
X160238281Y-75274816D01*
X160171242Y-75294500D01*
X158600227Y-75294500D01*
X158533188Y-75274815D01*
X158498652Y-75241623D01*
X158363494Y-75048597D01*
X158196403Y-74881506D01*
X158058761Y-74785129D01*
X158010838Y-74751573D01*
X157967215Y-74696999D01*
X157960021Y-74627500D01*
X157991543Y-74565145D01*
X158010836Y-74548428D01*
X158196401Y-74418495D01*
X158363495Y-74251401D01*
X158499035Y-74057830D01*
X158598903Y-73843663D01*
X158660063Y-73615408D01*
X158680659Y-73380000D01*
X158660063Y-73144592D01*
X158598903Y-72916337D01*
X158499035Y-72702171D01*
X158499034Y-72702169D01*
X158363494Y-72508597D01*
X158196402Y-72341505D01*
X158002830Y-72205965D01*
X158002828Y-72205964D01*
X157895746Y-72156031D01*
X157788663Y-72106097D01*
X157788659Y-72106096D01*
X157788655Y-72106094D01*
X157560413Y-72044938D01*
X157560403Y-72044936D01*
X157383967Y-72029500D01*
X157383966Y-72029500D01*
X155366034Y-72029500D01*
X155366033Y-72029500D01*
X155189596Y-72044936D01*
X155189586Y-72044938D01*
X154961344Y-72106094D01*
X154961335Y-72106098D01*
X154747171Y-72205964D01*
X154747169Y-72205965D01*
X154553597Y-72341505D01*
X154386506Y-72508597D01*
X154386501Y-72508604D01*
X154250967Y-72702165D01*
X154250965Y-72702169D01*
X154151098Y-72916335D01*
X154151094Y-72916344D01*
X154089938Y-73144586D01*
X154089936Y-73144596D01*
X154069341Y-73379999D01*
X154069341Y-73380000D01*
X154089936Y-73615403D01*
X154089938Y-73615413D01*
X154151094Y-73843655D01*
X154151096Y-73843659D01*
X154151097Y-73843663D01*
X154201031Y-73950745D01*
X154250964Y-74057828D01*
X154250965Y-74057830D01*
X154386505Y-74251402D01*
X154553596Y-74418493D01*
X154739158Y-74548424D01*
X154782783Y-74603001D01*
X154789977Y-74672499D01*
X154758454Y-74734854D01*
X154739159Y-74751574D01*
X154553594Y-74881508D01*
X154386506Y-75048597D01*
X154386501Y-75048604D01*
X154250967Y-75242165D01*
X154250965Y-75242169D01*
X154151098Y-75456335D01*
X154151094Y-75456344D01*
X154089938Y-75684586D01*
X154089936Y-75684596D01*
X154069341Y-75919999D01*
X154069341Y-75920000D01*
X154089936Y-76155403D01*
X154089938Y-76155413D01*
X154151094Y-76383655D01*
X154151096Y-76383659D01*
X154151097Y-76383663D01*
X154201031Y-76490745D01*
X154250964Y-76597828D01*
X154250965Y-76597830D01*
X154386505Y-76791402D01*
X154553597Y-76958494D01*
X154739158Y-77088425D01*
X154782783Y-77143002D01*
X154789977Y-77212500D01*
X154758454Y-77274855D01*
X154739158Y-77291575D01*
X154553597Y-77421505D01*
X154386506Y-77588597D01*
X154386501Y-77588604D01*
X154250967Y-77782165D01*
X154250965Y-77782169D01*
X154151098Y-77996335D01*
X154151094Y-77996344D01*
X154089938Y-78224586D01*
X154089936Y-78224596D01*
X154069341Y-78459999D01*
X154069341Y-78460000D01*
X154089936Y-78695403D01*
X154089938Y-78695413D01*
X154151094Y-78923655D01*
X154151096Y-78923659D01*
X154151097Y-78923663D01*
X154169372Y-78962853D01*
X154250964Y-79137828D01*
X154250965Y-79137830D01*
X154386505Y-79331402D01*
X154553597Y-79498494D01*
X154715782Y-79612057D01*
X154759407Y-79666634D01*
X154766601Y-79736132D01*
X154735078Y-79798487D01*
X154701570Y-79822754D01*
X154701861Y-79823257D01*
X154697169Y-79825965D01*
X154503597Y-79961505D01*
X154336506Y-80128597D01*
X154336501Y-80128604D01*
X154200967Y-80322165D01*
X154200965Y-80322169D01*
X154101098Y-80536335D01*
X154101094Y-80536344D01*
X154039938Y-80764586D01*
X154039936Y-80764596D01*
X154019341Y-80999999D01*
X154019341Y-81000000D01*
X154039936Y-81235403D01*
X154039938Y-81235413D01*
X154101094Y-81463655D01*
X154101096Y-81463659D01*
X154101097Y-81463663D01*
X154137876Y-81542535D01*
X154200964Y-81677828D01*
X154200965Y-81677830D01*
X154336505Y-81871402D01*
X154503596Y-82038493D01*
X154530227Y-82057140D01*
X154689156Y-82168423D01*
X154689158Y-82168424D01*
X154732783Y-82223001D01*
X154739977Y-82292499D01*
X154708454Y-82354854D01*
X154689159Y-82371574D01*
X154503594Y-82501508D01*
X154336506Y-82668597D01*
X154336501Y-82668604D01*
X154200967Y-82862165D01*
X154200965Y-82862169D01*
X154101098Y-83076335D01*
X154101094Y-83076344D01*
X154039938Y-83304586D01*
X154039936Y-83304596D01*
X154019341Y-83539999D01*
X154019341Y-83540000D01*
X154039936Y-83775403D01*
X154039938Y-83775413D01*
X154101094Y-84003655D01*
X154101096Y-84003659D01*
X154101097Y-84003663D01*
X154124633Y-84054136D01*
X154200964Y-84217828D01*
X154200965Y-84217830D01*
X154336505Y-84411402D01*
X154503597Y-84578494D01*
X154689158Y-84708425D01*
X154732783Y-84763002D01*
X154739977Y-84832500D01*
X154708454Y-84894855D01*
X154689158Y-84911575D01*
X154503597Y-85041505D01*
X154336506Y-85208597D01*
X154336501Y-85208604D01*
X154200967Y-85402165D01*
X154200965Y-85402169D01*
X154101098Y-85616335D01*
X154101094Y-85616344D01*
X154039938Y-85844586D01*
X154039936Y-85844596D01*
X154019341Y-86079999D01*
X154019341Y-86080000D01*
X154039936Y-86315403D01*
X154039938Y-86315413D01*
X154101094Y-86543655D01*
X154101096Y-86543659D01*
X154101097Y-86543663D01*
X154127601Y-86600500D01*
X154200964Y-86757828D01*
X154200965Y-86757830D01*
X154336505Y-86951402D01*
X154503597Y-87118494D01*
X154689594Y-87248730D01*
X154733219Y-87303307D01*
X154740413Y-87372805D01*
X154708890Y-87435160D01*
X154689595Y-87451880D01*
X154503922Y-87581890D01*
X154503920Y-87581891D01*
X154336894Y-87748917D01*
X154201398Y-87942423D01*
X154118593Y-88119999D01*
X154118593Y-88120000D01*
X157339237Y-88120000D01*
X157232685Y-88135320D01*
X157101900Y-88195048D01*
X156993239Y-88289202D01*
X156915507Y-88410156D01*
X156875000Y-88548111D01*
X156875000Y-88691889D01*
X156915507Y-88829844D01*
X156993239Y-88950798D01*
X157101900Y-89044952D01*
X157232685Y-89104680D01*
X157339237Y-89120000D01*
X156875000Y-89120000D01*
X156875000Y-89970000D01*
X157433946Y-89970000D01*
X157433946Y-89969999D01*
X157610316Y-89954569D01*
X157610326Y-89954567D01*
X157838483Y-89893433D01*
X157838492Y-89893429D01*
X158052577Y-89793600D01*
X158052579Y-89793599D01*
X158246073Y-89658113D01*
X158246079Y-89658108D01*
X158413105Y-89491082D01*
X158548601Y-89297576D01*
X158631406Y-89120000D01*
X157410763Y-89120000D01*
X157517315Y-89104680D01*
X157648100Y-89044952D01*
X157756761Y-88950798D01*
X157834493Y-88829844D01*
X157875000Y-88691889D01*
X157875000Y-88548111D01*
X157834493Y-88410156D01*
X157756761Y-88289202D01*
X157648100Y-88195048D01*
X157517315Y-88135320D01*
X157410763Y-88120000D01*
X158631406Y-88120000D01*
X158631405Y-88119999D01*
X158548599Y-87942421D01*
X158548597Y-87942417D01*
X158413113Y-87748926D01*
X158413108Y-87748920D01*
X158246079Y-87581891D01*
X158246073Y-87581886D01*
X158060404Y-87451880D01*
X158016779Y-87397303D01*
X158009585Y-87327805D01*
X158041108Y-87265450D01*
X158060398Y-87248734D01*
X158246401Y-87118495D01*
X158413495Y-86951401D01*
X158549035Y-86757830D01*
X158648903Y-86543663D01*
X158710063Y-86315408D01*
X158730659Y-86080000D01*
X158710063Y-85844592D01*
X158648903Y-85616337D01*
X158549035Y-85402171D01*
X158549034Y-85402169D01*
X158413494Y-85208597D01*
X158246403Y-85041506D01*
X158176410Y-84992497D01*
X158060838Y-84911573D01*
X158017215Y-84856999D01*
X158010021Y-84787500D01*
X158041543Y-84725145D01*
X158060836Y-84708428D01*
X158246401Y-84578495D01*
X158413495Y-84411401D01*
X158549035Y-84217830D01*
X158601409Y-84105511D01*
X158647581Y-84053073D01*
X158714774Y-84033921D01*
X158781656Y-84054136D01*
X158805938Y-84074943D01*
X158879177Y-84156282D01*
X158894129Y-84172888D01*
X159047265Y-84284148D01*
X159047270Y-84284151D01*
X159220192Y-84361142D01*
X159220197Y-84361144D01*
X159405354Y-84400500D01*
X159405355Y-84400500D01*
X159594644Y-84400500D01*
X159594646Y-84400500D01*
X159779803Y-84361144D01*
X159952730Y-84284151D01*
X160094641Y-84181046D01*
X160160447Y-84157567D01*
X160228501Y-84173392D01*
X160277196Y-84223498D01*
X160280320Y-84229853D01*
X160300092Y-84273148D01*
X160300102Y-84273166D01*
X160377896Y-84394216D01*
X160377899Y-84394220D01*
X160377903Y-84394226D01*
X160377908Y-84394231D01*
X160377912Y-84394237D01*
X160431038Y-84455548D01*
X160472057Y-84502887D01*
X160472060Y-84502890D01*
X160580830Y-84597139D01*
X160641307Y-84636004D01*
X160701778Y-84674868D01*
X160701780Y-84674868D01*
X160701784Y-84674871D01*
X160832700Y-84734658D01*
X160970655Y-84775165D01*
X161113111Y-84795647D01*
X161113114Y-84795647D01*
X161685000Y-84795647D01*
X161756961Y-84790500D01*
X161794270Y-84779544D01*
X161846848Y-84775784D01*
X161985000Y-84795647D01*
X161985003Y-84795647D01*
X162556886Y-84795647D01*
X162556889Y-84795647D01*
X162699345Y-84775165D01*
X162837300Y-84734658D01*
X162968216Y-84674871D01*
X163089170Y-84597139D01*
X163089174Y-84597136D01*
X163197943Y-84502887D01*
X163238965Y-84455544D01*
X163292088Y-84394237D01*
X163292089Y-84394234D01*
X163292097Y-84394226D01*
X163369904Y-84273155D01*
X163390656Y-84227712D01*
X163436412Y-84174907D01*
X163487264Y-84156284D01*
X163628577Y-84137682D01*
X163834399Y-84082535D01*
X164031262Y-84000994D01*
X164215797Y-83894456D01*
X164384847Y-83764742D01*
X164397240Y-83752348D01*
X164397245Y-83752345D01*
X164401596Y-83747993D01*
X164404311Y-83745277D01*
X164404313Y-83745277D01*
X164460184Y-83689406D01*
X164460184Y-83689407D01*
X164513889Y-83635703D01*
X164513890Y-83635700D01*
X164519256Y-83630335D01*
X164519264Y-83630326D01*
X167681529Y-80468060D01*
X167687605Y-80462731D01*
X167749015Y-80415611D01*
X167777031Y-80399436D01*
X167837204Y-80374513D01*
X167868462Y-80366138D01*
X167945250Y-80356030D01*
X167953344Y-80355500D01*
X168025155Y-80355501D01*
X168025159Y-80355500D01*
X171290782Y-80355500D01*
X171357821Y-80375185D01*
X171403576Y-80427989D01*
X171413520Y-80497147D01*
X171403163Y-80531906D01*
X171401099Y-80536330D01*
X171401094Y-80536344D01*
X171339938Y-80764586D01*
X171339936Y-80764596D01*
X171319341Y-80999999D01*
X171319341Y-81000000D01*
X171339936Y-81235403D01*
X171339938Y-81235413D01*
X171401094Y-81463655D01*
X171401096Y-81463659D01*
X171401097Y-81463663D01*
X171437876Y-81542535D01*
X171500964Y-81677828D01*
X171500965Y-81677830D01*
X171636505Y-81871402D01*
X171803596Y-82038493D01*
X171830227Y-82057140D01*
X171989156Y-82168423D01*
X171989158Y-82168424D01*
X172032783Y-82223001D01*
X172039977Y-82292499D01*
X172008454Y-82354854D01*
X171989159Y-82371574D01*
X171803594Y-82501508D01*
X171636506Y-82668597D01*
X171636501Y-82668604D01*
X171500967Y-82862165D01*
X171500965Y-82862169D01*
X171401098Y-83076335D01*
X171401094Y-83076344D01*
X171339938Y-83304586D01*
X171339936Y-83304596D01*
X171319341Y-83539999D01*
X171319341Y-83540000D01*
X171339936Y-83775403D01*
X171339938Y-83775413D01*
X171401094Y-84003655D01*
X171401096Y-84003659D01*
X171401097Y-84003663D01*
X171424633Y-84054136D01*
X171500964Y-84217828D01*
X171500965Y-84217830D01*
X171636505Y-84411402D01*
X171803597Y-84578494D01*
X171989158Y-84708425D01*
X172032783Y-84763002D01*
X172039977Y-84832500D01*
X172008454Y-84894855D01*
X171989158Y-84911575D01*
X171803597Y-85041505D01*
X171636506Y-85208597D01*
X171636501Y-85208604D01*
X171500967Y-85402165D01*
X171500965Y-85402169D01*
X171401098Y-85616335D01*
X171401094Y-85616344D01*
X171339938Y-85844586D01*
X171339936Y-85844596D01*
X171319341Y-86079999D01*
X171319341Y-86080000D01*
X171339936Y-86315403D01*
X171339938Y-86315413D01*
X171401094Y-86543655D01*
X171401096Y-86543659D01*
X171401097Y-86543663D01*
X171427601Y-86600500D01*
X171500964Y-86757828D01*
X171500965Y-86757830D01*
X171636505Y-86951402D01*
X171772012Y-87086909D01*
X171805497Y-87148232D01*
X171800513Y-87217924D01*
X171758641Y-87273857D01*
X171727665Y-87290772D01*
X171632669Y-87326203D01*
X171632664Y-87326206D01*
X171517455Y-87412452D01*
X171517452Y-87412455D01*
X171431206Y-87527664D01*
X171431202Y-87527671D01*
X171380908Y-87662517D01*
X171374501Y-87722116D01*
X171374501Y-87722123D01*
X171374500Y-87722135D01*
X171374500Y-89517870D01*
X171374501Y-89517876D01*
X171380908Y-89577483D01*
X171431202Y-89712328D01*
X171431206Y-89712335D01*
X171517452Y-89827544D01*
X171517455Y-89827547D01*
X171632664Y-89913793D01*
X171632671Y-89913797D01*
X171767517Y-89964091D01*
X171767516Y-89964091D01*
X171774444Y-89964835D01*
X171827127Y-89970500D01*
X175422872Y-89970499D01*
X175482483Y-89964091D01*
X175617331Y-89913796D01*
X175732546Y-89827546D01*
X175818796Y-89712331D01*
X175869091Y-89577483D01*
X175875500Y-89517873D01*
X175875500Y-89369500D01*
X175895185Y-89302461D01*
X175947989Y-89256706D01*
X175999500Y-89245500D01*
X176907609Y-89245500D01*
X176908225Y-89245480D01*
X177014009Y-89245482D01*
X177307045Y-89212469D01*
X177594541Y-89146853D01*
X177872883Y-89049461D01*
X178138571Y-88921516D01*
X178388262Y-88764628D01*
X178618818Y-88580770D01*
X178667204Y-88532384D01*
X178667207Y-88532383D01*
X178748439Y-88451151D01*
X178776783Y-88422808D01*
X178776783Y-88422807D01*
X178786984Y-88412607D01*
X178786991Y-88412597D01*
X178794652Y-88404937D01*
X178820086Y-88379504D01*
X178823034Y-88376745D01*
X178953634Y-88262214D01*
X178960052Y-88257290D01*
X179102794Y-88161915D01*
X179109808Y-88157865D01*
X179263775Y-88081939D01*
X179271277Y-88078832D01*
X179433834Y-88023653D01*
X179441655Y-88021558D01*
X179610034Y-87988068D01*
X179618066Y-87987011D01*
X179723280Y-87980116D01*
X179791696Y-87975633D01*
X179795750Y-87975500D01*
X179869368Y-87975501D01*
X179869372Y-87975500D01*
X179876000Y-87975500D01*
X179943039Y-87995185D01*
X179988794Y-88047989D01*
X180000000Y-88099500D01*
X180000000Y-91625500D01*
X179980315Y-91692539D01*
X179927511Y-91738294D01*
X179876000Y-91749500D01*
X172002024Y-91749500D01*
X171997974Y-91749367D01*
X171967355Y-91747360D01*
X171916413Y-91744021D01*
X171734560Y-91731015D01*
X171726880Y-91729980D01*
X171610590Y-91706848D01*
X171466352Y-91675472D01*
X171459596Y-91673597D01*
X171341465Y-91633497D01*
X171339727Y-91632878D01*
X171208258Y-91583842D01*
X171202499Y-91581356D01*
X171088204Y-91524992D01*
X171085912Y-91523802D01*
X170965091Y-91457828D01*
X170960357Y-91454961D01*
X170853349Y-91383461D01*
X170850639Y-91381543D01*
X170810592Y-91351564D01*
X170741353Y-91299732D01*
X170737648Y-91296729D01*
X170640492Y-91211526D01*
X170637549Y-91208769D01*
X170541228Y-91112448D01*
X170538469Y-91109502D01*
X170505450Y-91071851D01*
X170453265Y-91012345D01*
X170450271Y-91008652D01*
X170368454Y-90899358D01*
X170366537Y-90896649D01*
X170295037Y-90789641D01*
X170292170Y-90784907D01*
X170226173Y-90664042D01*
X170225024Y-90661830D01*
X170168635Y-90547483D01*
X170166156Y-90541740D01*
X170117103Y-90410224D01*
X170116531Y-90408618D01*
X170076395Y-90290383D01*
X170074531Y-90283666D01*
X170043150Y-90139408D01*
X170020015Y-90023102D01*
X170018985Y-90015459D01*
X170005992Y-89833793D01*
X170003256Y-89792056D01*
X170000633Y-89752018D01*
X170000500Y-89747963D01*
X170000500Y-89618886D01*
X170000499Y-89618872D01*
X169987202Y-89517873D01*
X169981260Y-89472743D01*
X169981308Y-89472435D01*
X169980945Y-89470351D01*
X169979111Y-89456425D01*
X169978741Y-89452772D01*
X169973349Y-89377390D01*
X169968036Y-89362672D01*
X169967062Y-89362866D01*
X169966271Y-89358891D01*
X169966270Y-89358887D01*
X169966270Y-89358884D01*
X169923016Y-89197457D01*
X169923027Y-89196965D01*
X169922142Y-89194197D01*
X169914592Y-89166019D01*
X169913912Y-89163214D01*
X169903193Y-89113936D01*
X169898999Y-89107032D01*
X169828437Y-88936680D01*
X169828324Y-88935638D01*
X169825946Y-88930666D01*
X169809888Y-88891901D01*
X169802310Y-88873605D01*
X169801503Y-88871552D01*
X169796786Y-88858907D01*
X169792299Y-88853354D01*
X169787305Y-88844705D01*
X169699452Y-88692538D01*
X169699028Y-88690789D01*
X169698683Y-88690328D01*
X169694619Y-88684166D01*
X169666924Y-88636197D01*
X169665238Y-88634000D01*
X169657175Y-88621616D01*
X169651936Y-88616665D01*
X169538517Y-88468855D01*
X169537535Y-88466315D01*
X169536251Y-88465031D01*
X169530899Y-88458927D01*
X169507281Y-88428148D01*
X169507274Y-88428140D01*
X169494209Y-88415075D01*
X169485357Y-88404859D01*
X169480503Y-88401369D01*
X169348629Y-88269495D01*
X169346733Y-88266023D01*
X169334923Y-88255789D01*
X169321860Y-88242726D01*
X169321851Y-88242718D01*
X169321850Y-88242718D01*
X169291066Y-88219096D01*
X169284968Y-88213747D01*
X169284480Y-88213259D01*
X169281145Y-88211483D01*
X169133331Y-88098060D01*
X169130528Y-88094222D01*
X169116000Y-88084762D01*
X169113803Y-88083076D01*
X169065834Y-88055380D01*
X169059850Y-88051433D01*
X169057458Y-88050545D01*
X168896643Y-87957699D01*
X168893067Y-87953948D01*
X168878431Y-87948490D01*
X168876372Y-87947680D01*
X168819329Y-87924052D01*
X168814844Y-87921906D01*
X168813318Y-87921562D01*
X168642964Y-87850999D01*
X168638387Y-87847311D01*
X168586774Y-87836083D01*
X168583906Y-87835387D01*
X168555831Y-87827864D01*
X168553277Y-87827048D01*
X168552539Y-87826983D01*
X168391112Y-87783729D01*
X168387134Y-87782938D01*
X168387407Y-87781565D01*
X168377011Y-87776964D01*
X168297219Y-87771257D01*
X168293555Y-87770885D01*
X168284254Y-87769661D01*
X168279666Y-87769056D01*
X168277721Y-87768717D01*
X168277253Y-87768739D01*
X168131127Y-87749500D01*
X168131120Y-87749500D01*
X168000099Y-87749500D01*
X167995239Y-87749500D01*
X167990815Y-87749342D01*
X167975275Y-87748230D01*
X167968300Y-87749500D01*
X162031699Y-87749500D01*
X162026856Y-87748077D01*
X162009184Y-87749342D01*
X162004760Y-87749500D01*
X162000500Y-87749500D01*
X162000000Y-87749500D01*
X161868880Y-87749500D01*
X161868874Y-87749500D01*
X161868869Y-87749501D01*
X161722744Y-87768739D01*
X161722433Y-87768690D01*
X161720324Y-87769058D01*
X161706448Y-87770884D01*
X161702781Y-87771256D01*
X161627427Y-87776646D01*
X161612674Y-87781975D01*
X161612866Y-87782938D01*
X161608887Y-87783729D01*
X161447458Y-87826983D01*
X161446962Y-87826971D01*
X161444161Y-87827867D01*
X161416095Y-87835387D01*
X161413226Y-87836083D01*
X161363938Y-87846805D01*
X161357035Y-87850999D01*
X161186680Y-87921562D01*
X161185639Y-87921673D01*
X161180664Y-87924054D01*
X161123630Y-87947678D01*
X161121571Y-87948488D01*
X161108906Y-87953211D01*
X161103356Y-87957699D01*
X160942540Y-88050546D01*
X160940785Y-88050971D01*
X160940315Y-88051324D01*
X160934157Y-88055385D01*
X160886196Y-88083076D01*
X160883997Y-88084764D01*
X160871612Y-88092827D01*
X160866665Y-88098063D01*
X160718857Y-88211481D01*
X160716313Y-88212464D01*
X160715028Y-88213750D01*
X160708928Y-88219100D01*
X160678144Y-88242722D01*
X160678138Y-88242727D01*
X160665074Y-88255791D01*
X160654856Y-88264645D01*
X160651370Y-88269495D01*
X160519495Y-88401370D01*
X160516024Y-88403265D01*
X160505791Y-88415074D01*
X160492727Y-88428138D01*
X160492722Y-88428144D01*
X160469100Y-88458928D01*
X160463750Y-88465028D01*
X160463258Y-88465519D01*
X160461481Y-88468857D01*
X160348063Y-88616665D01*
X160344222Y-88619468D01*
X160334764Y-88633997D01*
X160333076Y-88636196D01*
X160305385Y-88684157D01*
X160301433Y-88690148D01*
X160300546Y-88692540D01*
X160207699Y-88853356D01*
X160203948Y-88856931D01*
X160198488Y-88871571D01*
X160197678Y-88873630D01*
X160174054Y-88930664D01*
X160171905Y-88935155D01*
X160171562Y-88936680D01*
X160100999Y-89107035D01*
X160097311Y-89111610D01*
X160086083Y-89163226D01*
X160085387Y-89166095D01*
X160077867Y-89194161D01*
X160077047Y-89196724D01*
X160076983Y-89197458D01*
X160033729Y-89358887D01*
X160032938Y-89362866D01*
X160031566Y-89362593D01*
X160026963Y-89372990D01*
X160021256Y-89452781D01*
X160020884Y-89456448D01*
X160019058Y-89470324D01*
X160018717Y-89472278D01*
X160018739Y-89472744D01*
X159999501Y-89618869D01*
X159999500Y-89618886D01*
X159999500Y-89747976D01*
X159999367Y-89752033D01*
X159994021Y-89833585D01*
X159981015Y-90015438D01*
X159979980Y-90023118D01*
X159956848Y-90139408D01*
X159925472Y-90283646D01*
X159923597Y-90290402D01*
X159883497Y-90408533D01*
X159882878Y-90410271D01*
X159833842Y-90541740D01*
X159831356Y-90547499D01*
X159774992Y-90661794D01*
X159773802Y-90664086D01*
X159707828Y-90784907D01*
X159704961Y-90789641D01*
X159633461Y-90896649D01*
X159631543Y-90899359D01*
X159549744Y-91008631D01*
X159546723Y-91012357D01*
X159461529Y-91109502D01*
X159458755Y-91112464D01*
X159362464Y-91208755D01*
X159359502Y-91211529D01*
X159262357Y-91296723D01*
X159258631Y-91299744D01*
X159149359Y-91381543D01*
X159146649Y-91383461D01*
X159039641Y-91454961D01*
X159034907Y-91457828D01*
X158914086Y-91523802D01*
X158911794Y-91524992D01*
X158797499Y-91581356D01*
X158791740Y-91583842D01*
X158660271Y-91632878D01*
X158658533Y-91633497D01*
X158540402Y-91673597D01*
X158533646Y-91675472D01*
X158389408Y-91706848D01*
X158273118Y-91729980D01*
X158265438Y-91731015D01*
X158083585Y-91744021D01*
X158027608Y-91747690D01*
X158002025Y-91749367D01*
X157997976Y-91749500D01*
X148124000Y-91749500D01*
X148056961Y-91729815D01*
X148011206Y-91677011D01*
X148000000Y-91625500D01*
X148000000Y-89120000D01*
X154118594Y-89120000D01*
X154201400Y-89297578D01*
X154201402Y-89297582D01*
X154336886Y-89491073D01*
X154336891Y-89491079D01*
X154503920Y-89658108D01*
X154503926Y-89658113D01*
X154697420Y-89793599D01*
X154697422Y-89793600D01*
X154911507Y-89893429D01*
X154911516Y-89893433D01*
X155139673Y-89954567D01*
X155139683Y-89954569D01*
X155316053Y-89969999D01*
X155316054Y-89970000D01*
X155875000Y-89970000D01*
X155875000Y-89120000D01*
X154118594Y-89120000D01*
X148000000Y-89120000D01*
X148000000Y-63500000D01*
X178008593Y-63500000D01*
X178091398Y-63677576D01*
X178226894Y-63871082D01*
X178393917Y-64038105D01*
X178587422Y-64173600D01*
X178587424Y-64173601D01*
X178764999Y-64256405D01*
X178765000Y-64256405D01*
X178765000Y-63500000D01*
X178008593Y-63500000D01*
X148000000Y-63500000D01*
X148000000Y-62500000D01*
X178008594Y-62500000D01*
X178765000Y-62500000D01*
X178765000Y-61743593D01*
X178764999Y-61743593D01*
X178587422Y-61826399D01*
X178587420Y-61826400D01*
X178393926Y-61961886D01*
X178393920Y-61961891D01*
X178226891Y-62128920D01*
X178226886Y-62128926D01*
X178091402Y-62322417D01*
X178091400Y-62322421D01*
X178008594Y-62499999D01*
X178008594Y-62500000D01*
X148000000Y-62500000D01*
X148000000Y-60374500D01*
X148019685Y-60307461D01*
X148072489Y-60261706D01*
X148124000Y-60250500D01*
X179876000Y-60250500D01*
X179943039Y-60270185D01*
G37*
%TD.AperFunction*%
%TD*%
M02*
